<svg xmlns="http://www.w3.org/2000/svg" xmlns:xlink="http://www.w3.org/1999/xlink" viewBox="0 0 385.92 216.48">
  <g id="uppersole" class="g_to_interact_with" style="isolation: isolate">
    <path d="M101.52,127.2c.56,0,.68,0,1,.24,1.75.69,2.77,2.5,4.32,3.36,1.23.68,2.35.79,3.6,1.44,1.59.83,3.42,2.11,5,2.88l2.64.24c1.76.48,4,1.54,5.76,2.16l2.88.48c6.64,2.41,14.29,3.8,21.12,6.24l4.8.72c6.94,1.94,14.32,4,21.12,6.48l5.76,1c5.75,2,12.48,3.23,18.24,5.28l6.24.72a41.41,41.41,0,0,1,3.84,1.68c2.1.78,4,.43,6.24,1.2,1,.34,2.29,1.3,3.36,1.68L228,164.64c3.07.85,7.53,2,10.56,2.88h4.8c3.39.84,8,1,11.52,1.92h4.32a52.56,52.56,0,0,0,8.4,1.44h16.8c8.24,0,16.61.36,23.52-1.2l16.08-.24c2.56-.65,5.75-1.31,8.16-1.92h3.36c9.3-2.38,17.75-4.38,25.44-8.4,2.22-1.16,6.84-2.75,8.4-4.32.72-.73.76-2.11,1.44-2.88s2.18-1.28,2.88-2.16c.55-.69.72-1.94,1.2-2.64.42.15.23,0,.48.24a2,2,0,0,1,1.2,1.92c1.06,1.75-.77,3.24-1.44,4.08-1.15,1.45-2.07,3.27-3.6,4.32-1.32.91-2.89,1.35-4.08,2.4-.59.52-1,1.48-1.68,1.92-.92.62-1.61.32-2.88.72a35.08,35.08,0,0,0-3.36,1.68c-1.34.6-2.47.44-3.84,1-1.12.42-2.33,1.46-3.36,1.92l-2.4.24c-2.9.89-6.58,2.09-9.6,2.88h-2.4c-4.68,1.18-10.53,1.63-15.36,2.88l-8.64.48c-6.42,1.58-15.08,1-22.8,1-12.08,0-26.28,1.15-36.24-1.44-.48-.12-5.71-.49-5.76-.48-.57.13-1.82.91-2.88.48-.24-.1-.72-.86-1-1-1.59-.66-4,0-5.76-.48-2.73-.7-6.12-1.26-8.64-1.92-1.83-.48-3.11,0-4.8-.48-8.63-2.39-17.4-4-25.44-7l-4.32-.72c-3.87-1.18-8.44-2.3-12-3.6l-4.8-.72c-2.72-.74-5.71-1.75-8.16-2.64l-2.4-.24c-2.53-.7-5.6-1.71-8.16-2.4h-1.92c-4.22-1.15-10.33-3-13.44-4.08l-2.88-.24c-2.73-.72-5.86-1.78-8.64-2.64l-6.72-1.44c-4.63-1.68-9.72-3.56-14.4-5.28-2-.71-3.53-.56-5.28-1.44-2.74-1.39-6.26-5.14-6.24-9.36C101.47,127.43,101.37,127.61,101.52,127.2Z" fill-rule="evenodd"/>
  </g>
  <g id="wave" class="g_to_interact_with" style="isolation: isolate">
    <path d="M107.52,86.64c2.48.07,4.72,1.48,6.72,2.16,2.45.83,5.67.83,8.16,1.44h6c4.43,0,10,.41,13.68-.48h6.24c3.86-.92,10.36-.8,13.44.72,2.41,1.19,3.91,3.84,6,5.28,7.11,4.92,14,10,19.68,16.32.63.69.81,1.7,1.44,2.4,1.26,1.41,3,2.44,4.32,3.84,4,4.41,9,10.33,15.12,12.48,4.58,1.6,9.59-.7,13.92-.72a2.16,2.16,0,0,0,.72.72c-.7,2.61-.73,8.29-1,11.76-.53.42-.88,1.37-1.44,1.68L216,145c-7.64,2-13.51-1.11-17.76-4.08-3-2.06-5.28-4.85-7.92-7.2-.7-.63-1.71-.81-2.4-1.44-1.57-1.44-2.81-3.29-4.32-4.8s-3.36-2.75-4.8-4.32c-.77-.85-1.11-2.07-1.92-2.88s-2.17-1.2-2.88-2.16c-1-1.39-2-3.07-3.36-4.08a25.82,25.82,0,0,1-2.4-1.44c-3.8-3.48-7.44-7.92-13.2-9.36-3.54-.89-9.88.34-12.48,1h-7.2c-5.3,1.26-12.71.19-17.28-1-3.64-.91-7.8-.47-9.6-3.12C107.11,98.39,106.34,89.31,107.52,86.64Z" fill-rule="evenodd"/>
  </g>
  <g id="rings" class="g_to_interact_with" style="isolation: isolate">
    <path d="M172.32,33.12a6.36,6.36,0,0,1,2.88.24A3.2,3.2,0,0,1,177.84,36c-.82.56-1,1.2-2.16,1.44-.54-.8-1-1-2.4-1-.76.79-1.61,1.64-2.4,2.4a6.83,6.83,0,0,0,3.36,5.52c.67.41,1,.05,1.44.72l-.72.48c-1,.79-2.73.37-4.08.24-1-1.12-2.43-1.15-2.64-3.12-1-1.36-.65-3.87-.48-5.76,1-.69,1.52-1.84,2.4-2.64C170.77,33.76,171.65,33.63,172.32,33.12Z"  fill-rule="evenodd"/>
    <path d="M180.48,49.92h4.32v.48c-.42.48-.65,1.35-1.2,1.68-.84.5-1.72.36-2.4,1s-1,1.55-1.68,2.16a3.79,3.79,0,0,0,.24,1.92c.41,1.28,1.34,1.58,2.16,2.4a29.45,29.45,0,0,1,5.28.24v1a11.12,11.12,0,0,1-6.72,1.68c-3.47-3.17-4.16-2.49-3.6-9.12A39.15,39.15,0,0,0,180.48,49.92Z" fill-rule="evenodd"/>
    <path d="M198.72,75.84l-.24,1.2c-1.53.65-2.08,2.16-4.08,2.4-1.33.91-4.26-.28-5.28-.72C188,77,186.75,75.86,186.72,73c1.34-2,1.34-5.22,4.32-5.52a4.18,4.18,0,0,1,2.88-.72v.48c-1.4,1.32-2.46,3-3.84,4.32a5.07,5.07,0,0,0,.24,2.4c.34,1.08,1,1.23,1.68,1.92Z" fill-rule="evenodd"/>
    <path d="M202.08,82.56h1.44V83h.24v.24h-.24c-.69,1.06-1.78,1.53-2.64,2.4-.48.49-.7,1.21-1.2,1.68a5.07,5.07,0,0,0,.24,2.4c.34,1.08,1,1.23,1.68,1.92,2.84,0,4-1,6.24-1.2a2.66,2.66,0,0,0,.48.72c-.15.42,0,.23-.24.48-.58,1.84-4.11,4.52-7,3.84a14.42,14.42,0,0,0-2.4-.72c-1-1.4-2.42-1.88-2.64-4.08-.72-1.11.18-2.59.48-3.36.78-2,1.62-3.58,3.6-4.32C200.93,82.75,201.52,82.93,202.08,82.56Z" fill-rule="evenodd"/>
    <path d="M222.72,102.72l-.24,2.88c-1.55,1.08-2.26,3.33-4.56,3.6-1,.7-3.63.11-4.8,0-.88-1.27-2.42-1.66-2.64-3.6-2.34-3.39,3.09-8.94,5.52-7.68.61.35.37.11.48,1-.89.87-1.5,2-2.4,2.88,0,1-.18,2.73.24,3.36.34,1.08,1,1.23,1.68,1.92.42-.15.23-.05.48-.24C218.84,106,220,103.23,222.72,102.72Z" fill-rule="evenodd"/>
    <path d="M230.4,108.48c0,3.35-1.86,4.18-1.2,7.68a3.63,3.63,0,0,0,2.64,1c.88-.87,4.76-3.25,5.76-2.88.19.28.19.4.24,1-.57.66-.51,1.58-1,2.4-.59,1.07-1.79,1.58-2.64,2.4-2.07.07-4.57.16-5.76-.72-4.55-1.34-4.29-10.17,1-10.56C229.72,108.53,229.84,108.53,230.4,108.48Z" fill-rule="evenodd"/>
    <path d="M248.16,117.6c-.21,2.27-1.76,2.17-2.4,3.6v3.6c.19.25.09.07.24.48l.72.24a5.94,5.94,0,0,0,3.84,0,7.85,7.85,0,0,0,2.88-2.16h1a5.07,5.07,0,0,1-.24,2.4c-.49,1.78-2,2.24-3.12,3.36-1.44.06-2.44.81-3.84.48-2.39-.57-3.32-2.38-4.8-3.84-.16-5.56-.56-5.14,2.88-8.4Z" fill-rule="evenodd"/>
    <path d="M270.72,130.56a14.89,14.89,0,0,1-.72,4.8c-1.5,1-5.48,4-8.4,1.92-3.54-1.14-5.22-10.8,0-11.28.64-.44,1.71-.16,2.4,0a2.66,2.66,0,0,0,.48.72c-.4,1.18-2,2.54-2.88,3.36a16.92,16.92,0,0,0,.24,3.36l.72.24a5.94,5.94,0,0,0,3.84,0C268.27,133.05,268.69,131,270.72,130.56Z" fill-rule="evenodd"/>
  </g>
  <g id="shadow_Image" data-name="shadow Image">
    <image id="shadow_Image-2" data-name="shadow Image" width="1608" height="902" transform="scale(0.24)" xlink:href="vans1.png"/>
  </g>
</svg>
